<?xml version="1.0" encoding="utf-8"?>
<!-- Generator: Adobe Illustrator 24.0.0, SVG Export Plug-In . SVG Version: 6.00 Build 0)  -->
<svg version="1.1" id="Layer_1" xmlns="http://www.w3.org/2000/svg" xmlns:xlink="http://www.w3.org/1999/xlink" x="0px" y="0px"
	 viewBox="0 0 9 18" style="enable-background:new 0 0 9 18;" xml:space="preserve">
<style type="text/css">
	.st0{fill-rule:evenodd;clip-rule:evenodd;fill:#4C6085;}
	.st1{fill:#4C6085;}
</style>
<path class="st0" d="M8.4,18c-0.1,0-0.2,0-0.2,0c-0.1,0-0.1-0.1-0.2-0.1L4.5,14L1,17.8C0.9,17.9,0.8,18,0.7,18s-0.2,0-0.3,0
	c-0.1,0-0.2-0.1-0.3-0.2C0,17.6,0,17.5,0,17.4V0.6c0-0.1,0-0.2,0-0.2c0-0.1,0.1-0.1,0.1-0.2C0.2,0.1,0.3,0.1,0.4,0
	c0.1,0,0.1,0,0.2,0h7.8c0.1,0,0.2,0,0.2,0c0.1,0,0.1,0.1,0.2,0.1C8.9,0.2,8.9,0.3,9,0.4c0,0.1,0,0.2,0,0.2v16.7c0,0.1,0,0.2,0,0.2
	c0,0.1-0.1,0.1-0.1,0.2c-0.1,0.1-0.1,0.1-0.2,0.1C8.6,18,8.5,18,8.4,18z M4.5,12.5c0.1,0,0.2,0,0.2,0c0.1,0,0.1,0.1,0.2,0.1l2.9,3.1
	V1.3H1.2v14.6l2.9-3.1c0.1-0.1,0.1-0.1,0.2-0.1C4.3,12.5,4.4,12.5,4.5,12.5z"/>
<rect y="0.9" class="st1" width="9" height="12.3"/>
<polygon class="st1" points="0.5,12.6 4.8,13 1.1,16.9 "/>
<polygon class="st1" points="8.5,12.4 8,16.6 4.4,13.2 "/>
</svg>
