<svg width="18" height="18" viewBox="0 0 18 18" fill="none" xmlns="http://www.w3.org/2000/svg">
<path fill-rule="evenodd" clip-rule="evenodd" d="M17.9811 7.6795C17.955 7.57349 17.9026 7.47577 17.8286 7.39538C17.7547 7.31498 17.6616 7.25451 17.5581 7.21957L12.3618 5.47056L9.59381 0.34211C9.53883 0.23879 9.45673 0.152383 9.35632 0.0921126C9.25591 0.0318425 9.14098 0 9.02383 0C8.90669 0 8.79174 0.0318425 8.69133 0.0921126C8.59092 0.152383 8.50883 0.23879 8.45385 0.34211L5.69235 5.45723L0.462441 7.02829C0.356978 7.06046 0.261377 7.1188 0.184562 7.19782C0.107747 7.27685 0.0522157 7.374 0.023132 7.48025C-0.00595175 7.58649 -0.00763938 7.69836 0.0182334 7.80544C0.0441062 7.91251 0.0966988 8.01129 0.171101 8.09258L3.61898 11.8619L2.19456 17.1794C2.16324 17.296 2.16488 17.4189 2.1993 17.5345C2.23371 17.6501 2.29955 17.754 2.3895 17.8345C2.47908 17.9149 2.58938 17.9686 2.70793 17.9897C2.82649 18.0107 2.94858 17.9982 3.0604 17.9536L9.02404 15.5705L14.9868 17.954C15.0633 17.9842 15.1447 17.9998 15.227 18C15.3268 17.9998 15.4253 17.9766 15.5147 17.9323C15.6042 17.888 15.6822 17.8237 15.7428 17.7444C15.8033 17.6651 15.8448 17.5729 15.8639 17.475C15.883 17.3771 15.8793 17.2761 15.8531 17.1799L14.43 11.8688L17.8219 8.28344C17.8968 8.20406 17.9506 8.10719 17.9784 8.0017C18.0062 7.89621 18.0072 7.78544 17.9811 7.6795ZM13.2396 11.2386C13.1631 11.3197 13.1086 11.4189 13.0813 11.527C13.054 11.635 13.0547 11.7482 13.0834 11.8558L14.2647 16.2656L9.26374 14.2668C9.10987 14.2054 8.93821 14.2054 8.78434 14.2668L3.78251 16.2652L4.96379 11.8558C4.99213 11.75 4.99334 11.6387 4.96732 11.5323C4.9413 11.4258 4.88888 11.3277 4.81489 11.2468L1.82661 7.97998L6.32066 6.63027C6.48498 6.58024 6.62292 6.46749 6.70452 6.3165L9.02404 2.01808L11.3436 6.3165C11.4215 6.46125 11.5517 6.57097 11.7076 6.6234L16.1832 8.12784L13.2396 11.2386Z" fill="#4C6085"/>
</svg>
