<svg width="22" height="21" viewBox="0 0 22 21" fill="none" xmlns="http://www.w3.org/2000/svg">
<path fill-rule="evenodd" clip-rule="evenodd" d="M21.4761 2.00819L14.9668 0.0376449C14.9531 0.0332431 14.9384 0.03324 14.9243 0.0298163C14.8954 0.0228604 14.8662 0.0176353 14.8368 0.0141666C14.7808 0.00764629 14.7242 0.00764629 14.6681 0.0141666C14.6387 0.0177198 14.6095 0.022944 14.5807 0.0298163C14.5665 0.03324 14.5518 0.0332431 14.5377 0.0376449L8.24337 1.94509L1.9486 0.0376449C1.83819 0.00425129 1.72153 -0.00284722 1.60789 0.016913C1.49425 0.0366732 1.3868 0.0827458 1.29412 0.151454C1.20143 0.220163 1.12609 0.309601 1.07409 0.412633C1.0221 0.515666 0.994877 0.629439 0.994629 0.744867V18.2836C0.994752 18.4422 1.04583 18.5966 1.14035 18.7239C1.23486 18.8513 1.36779 18.9449 1.51951 18.9908L8.02884 20.9613C8.16874 21.0037 8.31804 21.0037 8.45794 20.9613L14.7522 19.0539L21.047 20.9613C21.1165 20.9826 21.1888 20.9933 21.2615 20.9931C21.4574 20.993 21.6453 20.9151 21.7839 20.7766C21.9225 20.6381 22.0006 20.4502 22.001 20.2541V2.71541C22.0007 2.55682 21.9495 2.4025 21.8551 2.27518C21.7606 2.14786 21.6277 2.05428 21.4761 2.00819ZM2.47399 1.74114L7.50346 3.26367V19.2569L2.47399 17.7343V1.74114ZM8.98282 3.26367L14.0128 1.74114V17.7343L8.98135 19.2579V3.26466L8.98282 3.26367ZM20.5216 19.2569L15.4922 17.7343V1.74114L20.5216 3.26367V19.2569Z" fill="white"/>
</svg>
