<svg width="26" height="22" viewBox="0 0 26 22" fill="none" xmlns="http://www.w3.org/2000/svg">
<path fill-rule="evenodd" clip-rule="evenodd" d="M1.71036 2.89549H24.2896C24.7358 2.88578 25.1598 2.72899 25.4713 2.45855C25.7828 2.1881 25.9572 1.82537 25.9572 1.44773C25.9572 1.07008 25.7828 0.707385 25.4713 0.436939C25.1598 0.166492 24.7358 0.009708 24.2896 0H1.71036C1.2642 0.009708 0.840246 0.166492 0.528741 0.436939C0.217236 0.707385 0.0429455 1.07008 0.0429455 1.44773C0.0429455 1.82537 0.217236 2.1881 0.528741 2.45855C0.840246 2.72899 1.2642 2.88578 1.71036 2.89549ZM24.2896 19.1054H1.71036C1.25674 19.1054 0.821749 19.2579 0.500985 19.5294C0.180222 19.8008 0 20.1689 0 20.5527C0 20.9365 0.180222 21.3047 0.500985 21.5761C0.821749 21.8475 1.25674 22 1.71036 22H24.2896C24.7433 22 25.1783 21.8475 25.499 21.5761C25.8198 21.3047 26 20.9365 26 20.5527C26 20.1689 25.8198 19.8008 25.499 19.5294C25.1783 19.2579 24.7433 19.1054 24.2896 19.1054ZM24.2896 9.55367H1.71036C1.25674 9.55367 0.821749 9.70617 0.500985 9.97758C0.180222 10.249 0 10.6171 0 11.0009C0 11.3848 0.180222 11.7529 0.500985 12.0243C0.821749 12.2957 1.25674 12.4482 1.71036 12.4482H24.2896C24.7433 12.4482 25.1783 12.2957 25.499 12.0243C25.8198 11.7529 26 11.3848 26 11.0009C26 10.6171 25.8198 10.249 25.499 9.97758C25.1783 9.70617 24.7433 9.55367 24.2896 9.55367Z" fill="white"/>
</svg>
