<svg width="25" height="29" viewBox="0 0 25 29" fill="none" xmlns="http://www.w3.org/2000/svg">
<path fill-rule="evenodd" clip-rule="evenodd" d="M14.1973 25.4826C14.2876 25.5323 14.3878 25.562 14.4919 25.57C14.5961 25.578 14.7022 25.5642 14.8041 25.5293C14.906 25.4945 15.0017 25.4393 15.0856 25.367C15.1696 25.2946 15.2402 25.2065 15.2932 25.1079L16.135 23.5764C16.5386 22.8435 16.8027 22.0436 16.9116 21.224C17.0205 20.4043 16.9719 19.5818 16.7688 18.8051C17.0944 18.3791 17.3891 17.9293 17.6501 17.4597C20.5041 12.2673 18.7449 4.77533 18.6681 4.45963C18.6431 4.35543 18.5982 4.25891 18.536 4.17568C18.4738 4.09244 18.3956 4.02414 18.3057 3.97475C18.2154 3.92548 18.1153 3.89625 18.0113 3.88881C17.9074 3.88138 17.8015 3.89586 17.7 3.93141C17.3929 4.03797 10.1461 6.60434 7.30488 11.7735C7.0534 12.2358 6.83524 12.7154 6.65236 13.2078C5.87885 13.449 5.14925 13.8488 4.50786 14.3832C3.86646 14.9176 3.32664 15.5754 2.92111 16.3166L2.08068 17.8456C1.97237 18.0427 1.9405 18.2712 1.99209 18.481C2.04368 18.6908 2.1745 18.8646 2.35576 18.9643C2.53702 19.0639 2.75389 19.0812 2.95865 19.0123C3.16341 18.9434 3.33928 18.794 3.44759 18.5969L4.28938 17.0654C4.7118 16.2956 5.33042 15.6548 6.07041 15.2207C5.89594 16.061 5.78131 16.9092 5.72746 17.7585C5.71702 17.9122 5.74737 18.0629 5.81514 18.1939C5.8829 18.325 5.98546 18.4312 6.11142 18.5009L8.66161 19.9027L8.00304 21.1008C7.89473 21.2979 7.86286 21.5264 7.91445 21.7362C7.96604 21.946 8.09686 22.1198 8.27812 22.2195C8.45939 22.3191 8.67625 22.3364 8.88101 22.2675C9.08577 22.1986 9.26164 22.0492 9.36995 21.8521L10.0285 20.654L12.6083 22.072C12.7344 22.1407 12.8787 22.1703 13.0253 22.1575C13.172 22.1446 13.3152 22.0898 13.4392 21.9991C14.1185 21.5075 14.7654 20.9663 15.3746 20.3799C15.3945 21.2231 15.1838 22.0718 14.767 22.827L13.9263 24.3565C13.8714 24.4542 13.8349 24.561 13.8188 24.6707C13.8028 24.7803 13.8075 24.8907 13.8327 24.9954C13.8579 25.1001 13.9031 25.1971 13.9656 25.2807C14.0282 25.3643 14.107 25.433 14.1973 25.4826ZM13.0054 20.3425L10.8507 19.1581L11.5096 17.9595C11.6179 17.7624 11.6497 17.5338 11.5982 17.3241C11.5466 17.1143 11.4157 16.9404 11.2345 16.8408C11.0532 16.7412 10.8363 16.7239 10.6316 16.7928C10.4268 16.8617 10.251 17.0111 10.1426 17.2081L9.48379 18.4068L7.35462 17.2365C7.44195 16.2131 7.6429 15.1953 7.95342 14.2041C7.98034 14.1439 8.00087 14.0812 8.01463 14.0172C8.18804 13.5024 8.40628 13.0024 8.66642 12.5238C10.6538 8.90795 15.392 6.628 17.2863 5.83366C17.6421 7.85573 18.2829 13.0703 16.2824 16.7099C15.4428 18.1399 14.3242 19.3804 13.0063 20.343L13.0054 20.3425ZM15.1241 9.83327C14.6353 9.55834 14.069 9.44762 13.497 9.51516C12.925 9.5827 12.3731 9.82546 11.9114 10.2126C11.4498 10.5998 11.0991 11.1139 10.904 11.6897C10.7089 12.2655 10.678 12.877 10.8154 13.4467C10.9529 14.0163 11.2523 14.5183 11.6758 14.889C12.0992 15.2598 12.6276 15.4825 13.1939 15.5289C13.7601 15.5752 14.3387 15.4433 14.8562 15.1496C15.3736 14.856 15.8067 14.414 16.1003 13.8797C16.4933 13.1695 16.6113 12.3449 16.4284 11.5866C16.2455 10.8282 15.7767 10.1981 15.1247 9.83428L15.1241 9.83327ZM12.984 13.727C12.7646 13.6088 12.5884 13.4225 12.4778 13.1918C12.3671 12.961 12.327 12.6961 12.3625 12.4308C12.398 12.1654 12.5075 11.9116 12.6771 11.7014C12.8467 11.4912 13.0689 11.3341 13.3153 11.2501C13.5617 11.1661 13.8213 11.159 14.0612 11.2297C14.301 11.3003 14.5104 11.4455 14.6626 11.6469C14.8148 11.8483 14.903 12.0968 14.9161 12.3608C14.9292 12.6248 14.8665 12.8925 14.7361 13.1298C14.5633 13.4468 14.2818 13.6878 13.9534 13.8C13.625 13.9121 13.2766 13.8862 12.9846 13.7279L12.984 13.727ZM3.92586 22.8205L5.29662 20.3266C5.40493 20.1295 5.4368 19.901 5.38522 19.6912C5.33363 19.4814 5.20281 19.3076 5.02154 19.208C4.84028 19.1083 4.62341 19.091 4.41866 19.1599C4.2139 19.2288 4.03802 19.3782 3.92971 19.5753L2.55895 22.0692C2.50525 22.1668 2.46977 22.2732 2.45453 22.3823C2.43928 22.4914 2.44457 22.601 2.4701 22.705C2.49562 22.8089 2.54089 22.9052 2.6033 22.9882C2.66571 23.0712 2.74404 23.1393 2.83384 23.1887C2.92363 23.2381 3.02313 23.2678 3.12664 23.2761C3.23015 23.2843 3.33563 23.2711 3.4371 23.237C3.53856 23.2029 3.63402 23.1486 3.71799 23.0773C3.80196 23.006 3.8728 22.9191 3.92649 22.8215L3.92586 22.8205ZM11.4662 26.965L12.837 24.4711C12.9453 24.2741 12.9771 24.0455 12.9256 23.8357C12.874 23.6259 12.7431 23.4521 12.5619 23.3525C12.3806 23.2528 12.1638 23.2356 11.959 23.3045C11.7542 23.3733 11.5784 23.5227 11.4701 23.7198L10.0993 26.2137C10.0456 26.3113 10.0101 26.4177 9.99487 26.5268C9.97962 26.6359 9.98491 26.7455 10.0104 26.8495C10.036 26.9535 10.0812 27.0497 10.1436 27.1327C10.206 27.2157 10.2844 27.2838 10.3742 27.3332C10.464 27.3826 10.5635 27.4123 10.667 27.4206C10.7705 27.4289 10.876 27.4156 10.9774 27.3815C11.0789 27.3474 11.1743 27.2931 11.2583 27.2218C11.3423 27.1506 11.4131 27.0636 11.4668 26.966L11.4662 26.965Z" fill="#E5E5E5"/>
</svg>
