<svg width="19" height="19" viewBox="0 0 19 19" fill="none" xmlns="http://www.w3.org/2000/svg">
<path fill-rule="evenodd" clip-rule="evenodd" d="M17.8542 6.00128L17.8157 5.89361L17.8002 5.8492L15.8581 0.418907C15.814 0.296213 15.733 0.190158 15.6263 0.115184C15.5196 0.0402101 15.3924 -2.81386e-05 15.262 1.47633e-08H2.76142C2.63103 -2.81386e-05 2.50382 0.0402101 2.39713 0.115184C2.29044 0.190158 2.20949 0.296213 2.16533 0.418907L0.223695 5.80773C0.211546 5.83537 0.201074 5.86427 0.187669 5.90407L0.119812 6.09258C0.102186 6.14122 0.0907878 6.19188 0.085883 6.24338C0.0301332 6.45379 0.00127083 6.67041 0 6.88808C0.000775088 7.44635 0.172702 7.99098 0.492619 8.44849C0.812536 8.90601 1.26506 9.25443 1.78915 9.44677V17.3704C1.78915 17.5385 1.85594 17.6997 1.9748 17.8186C2.09366 17.9374 2.25486 18.0042 2.42295 18.0042H15.8322C16.0002 18.0041 16.1613 17.9373 16.2801 17.8184C16.3988 17.6996 16.4655 17.5384 16.4655 17.3704V9.34164C16.9268 9.11855 17.316 8.77012 17.5885 8.33623C17.8611 7.90233 18.006 7.40047 18.0067 6.88808C18.0054 6.6876 17.9807 6.48796 17.933 6.29324C17.9308 6.19097 17.9037 6.09078 17.8542 6.00128ZM15.1984 16.7362H3.05717V9.59548C3.09487 9.59087 3.13134 9.58251 3.16862 9.57622C3.81388 9.47061 4.39965 9.13652 4.81909 8.63494C5.07462 8.94181 5.39455 9.18873 5.75616 9.35818C6.11776 9.52763 6.51221 9.61545 6.91155 9.61545C7.31089 9.61545 7.70534 9.52763 8.06694 9.35818C8.42855 9.18873 8.74845 8.94181 9.00399 8.63494C9.25931 8.94207 9.57913 9.1892 9.94072 9.35882C10.3023 9.52844 10.6968 9.61639 11.0962 9.61639C11.4956 9.61639 11.8901 9.52844 12.2517 9.35882C12.6133 9.1892 12.9331 8.94207 13.1884 8.63494C13.5509 9.068 14.0387 9.37809 14.5846 9.52258L14.6236 9.53391C14.6873 9.54941 14.7526 9.56113 14.818 9.57244C14.8553 9.57914 14.8921 9.58669 14.9302 9.59172C14.9809 9.59842 15.0325 9.60135 15.0844 9.60512C15.1225 9.60805 15.1598 9.61391 15.1984 9.61516V16.7366V16.7362ZM15.6801 8.28598C15.6751 8.28598 15.67 8.28598 15.665 8.28598C15.6062 8.30213 15.5467 8.31527 15.4866 8.32536C15.2477 8.3663 15.0022 8.34064 14.7769 8.25121C14.7665 8.24702 14.7551 8.24492 14.7447 8.24073C14.4936 8.13806 14.276 7.96778 14.116 7.7488C13.9559 7.52982 13.8597 7.27072 13.8382 7.00035C13.8382 6.98778 13.8331 6.97606 13.8315 6.96391C13.8315 6.93836 13.8239 6.91405 13.8239 6.88808C13.8261 6.8035 13.8113 6.71935 13.7805 6.64058C13.7496 6.56181 13.7032 6.49003 13.6442 6.42944C13.5851 6.36885 13.5146 6.3207 13.4366 6.28782C13.3587 6.25494 13.2749 6.23799 13.1903 6.23799C13.1057 6.23799 13.022 6.25494 12.944 6.28782C12.8661 6.3207 12.7955 6.36885 12.7364 6.42944C12.6774 6.49003 12.631 6.56181 12.6002 6.64058C12.5693 6.71935 12.5545 6.8035 12.5567 6.88808C12.5567 6.91992 12.5496 6.95009 12.5475 6.9815C12.5475 6.98821 12.5429 6.99324 12.5425 6.99994C12.5209 7.27085 12.4246 7.53047 12.2643 7.7499C12.1039 7.96933 11.8858 8.13997 11.6343 8.24283C11.6242 8.24701 11.6138 8.2487 11.6037 8.25247C11.5306 8.28131 11.4552 8.30388 11.3783 8.31991C11.1162 8.37459 10.8438 8.35144 10.5946 8.25331C10.5837 8.24912 10.5719 8.24743 10.5615 8.24283C10.3098 8.14024 10.0916 7.96974 9.93124 7.75033C9.77086 7.53093 9.67464 7.27127 9.65329 7.00035C9.65329 6.98862 9.64867 6.97773 9.647 6.96642C9.647 6.93961 9.63904 6.91489 9.63904 6.88808C9.64122 6.8035 9.62644 6.71935 9.59558 6.64058C9.56472 6.56181 9.51838 6.49003 9.45933 6.42944C9.40028 6.36885 9.32969 6.3207 9.25174 6.28782C9.17379 6.25494 9.09005 6.23799 9.00544 6.23799C8.92084 6.23799 8.8371 6.25494 8.75915 6.28782C8.68119 6.3207 8.61061 6.36885 8.55156 6.42944C8.49251 6.49003 8.44617 6.56181 8.41531 6.64058C8.38444 6.71935 8.36967 6.8035 8.37184 6.88808C8.37184 6.91992 8.36473 6.95009 8.36264 6.9815C8.36264 6.98821 8.35802 6.99324 8.3576 6.99994C8.33632 7.27094 8.24013 7.53067 8.07975 7.75016C7.91938 7.96964 7.70114 8.14021 7.44942 8.24283C7.43979 8.24701 7.4289 8.2487 7.41884 8.25247C7.34577 8.28131 7.27037 8.30388 7.19346 8.31991C7.00856 8.35789 6.81786 8.35789 6.63296 8.31991C6.55604 8.30393 6.48066 8.28136 6.4076 8.25247C6.39755 8.2487 6.38664 8.24703 6.37659 8.24326C6.12512 8.14028 5.90712 7.96959 5.7468 7.75018C5.58648 7.53077 5.49012 7.27122 5.46841 7.00035C5.46841 6.98778 5.46339 6.97606 5.46171 6.96391C5.46171 6.93836 5.45417 6.91405 5.45417 6.88808C5.45635 6.8035 5.44157 6.71935 5.41071 6.64058C5.37984 6.56181 5.3335 6.49003 5.27445 6.42944C5.2154 6.36885 5.14482 6.3207 5.06687 6.28782C4.98891 6.25494 4.90517 6.23799 4.82057 6.23799C4.73597 6.23799 4.6522 6.25494 4.57425 6.28782C4.49629 6.3207 4.42571 6.36885 4.36666 6.42944C4.30761 6.49003 4.2613 6.56181 4.23043 6.64058C4.19957 6.71935 4.18479 6.8035 4.18697 6.88808C4.18697 6.92075 4.17942 6.95134 4.17733 6.9836C4.17733 6.98947 4.17315 6.99406 4.17273 7.00035C4.15137 7.27127 4.05512 7.53093 3.89475 7.75033C3.73438 7.96974 3.51618 8.14024 3.26453 8.24283C3.25405 8.24743 3.24233 8.24912 3.23144 8.25331C3.07139 8.31648 2.90081 8.34874 2.72875 8.3484C2.67668 8.34608 2.6248 8.34076 2.57335 8.33247L2.51638 8.32452C2.50339 8.32242 2.4904 8.32452 2.47741 8.32452C2.2742 8.29327 2.08016 8.21839 1.90863 8.10504C1.7371 7.99169 1.59213 7.84254 1.48371 7.66785C1.37529 7.49316 1.30597 7.29708 1.28052 7.09306C1.25508 6.88903 1.27412 6.68191 1.33631 6.48594C1.34218 6.465 1.34719 6.44405 1.35096 6.42269L3.2084 1.27014H14.818L16.6126 6.28823L16.6268 6.33011L16.6607 6.42435C16.6645 6.44572 16.6696 6.46626 16.6754 6.48804C16.7168 6.61877 16.7393 6.75476 16.742 6.89186C16.7401 7.20777 16.6356 7.51451 16.4444 7.76593C16.2531 8.01735 15.9853 8.19986 15.6814 8.28598H15.6801Z" fill="#4C6085"/>
</svg>
