<svg width="18" height="18" viewBox="0 0 18 18" fill="none" xmlns="http://www.w3.org/2000/svg">
<path fill-rule="evenodd" clip-rule="evenodd" d="M0.186317 8.55281C0.127298 8.61142 0.0804452 8.68125 0.0484612 8.75824C0.0164771 8.83522 -3.96994e-07 8.91783 -3.93347e-07 9.00127C-3.897e-07 9.08471 0.0164772 9.16731 0.0484612 9.2443C0.0804453 9.32128 0.127298 9.39111 0.186317 9.44972L8.55437 17.8144C8.67361 17.9333 8.8347 18 9.00258 18C9.17046 18 9.33154 17.9333 9.45078 17.8144C9.50942 17.7556 9.55595 17.6858 9.5877 17.6089C9.61945 17.532 9.63579 17.4496 9.63579 17.3663C9.63579 17.2831 9.61945 17.2006 9.5877 17.1238C9.55595 17.0469 9.50942 16.9771 9.45078 16.9183L2.16472 9.63264L17.3702 9.63264C17.5372 9.63264 17.6974 9.56588 17.8155 9.44704C17.9336 9.32819 18 9.16701 18 8.99894C18 8.83088 17.9336 8.66971 17.8155 8.55087C17.6974 8.43203 17.5372 8.36526 17.3702 8.36526L2.16472 8.36526L9.45078 1.0817C9.50942 1.02295 9.55595 0.95313 9.5877 0.876245C9.61945 0.799358 9.63579 0.716917 9.63579 0.633657C9.63579 0.550399 9.61945 0.467969 9.5877 0.391084C9.55595 0.314197 9.50942 0.244375 9.45078 0.185632C9.33154 0.0667206 9.17046 -4.00854e-07 9.00258 -3.93515e-07C8.8347 -3.86177e-07 8.67361 0.0667206 8.55437 0.185632L0.186317 8.55281Z" fill="white"/>
</svg>
