<svg width="18" height="18" viewBox="0 0 18 18" fill="none" xmlns="http://www.w3.org/2000/svg">
<path fill-rule="evenodd" clip-rule="evenodd" d="M0.63369 17.9891H6.82399C6.85908 17.9957 6.89465 17.9994 6.93036 18H11.1145C11.1496 17.9995 11.1846 17.9958 11.2192 17.9891H17.3676C17.4507 17.9896 17.533 17.9736 17.6099 17.942C17.6868 17.9104 17.7567 17.8638 17.8156 17.8049C17.8744 17.746 17.921 17.676 17.9526 17.599C17.9843 17.5219 18.0004 17.4393 18 17.3559V8.99509C18.0001 8.95275 17.9959 8.91053 17.9874 8.86905C17.9826 8.84193 17.9756 8.81523 17.9665 8.78922L17.9539 8.75058C17.9414 8.72243 17.9246 8.69636 17.9121 8.67032C17.9049 8.66178 17.8993 8.65213 17.8953 8.64175C17.8713 8.60793 17.8447 8.57605 17.8157 8.54638L9.44752 0.185581C9.3288 0.0667422 9.16793 0 9.00021 0C8.8325 0 8.67163 0.0667422 8.55291 0.185581L0.18554 8.54638C0.156412 8.57555 0.130202 8.60748 0.10724 8.64175C0.100958 8.65141 0.0967686 8.66233 0.090905 8.67242C0.0749044 8.69731 0.0608841 8.72346 0.0490068 8.75058C0.0435621 8.7636 0.0410624 8.77746 0.0364553 8.79048C0.0268029 8.81612 0.0188254 8.84237 0.0125792 8.86905C0.00411594 8.91053 -0.000106548 8.95275 2.04214e-06 8.99509V17.3559C0.000445832 17.5241 0.0674405 17.6853 0.186256 17.804C0.305071 17.9227 0.465992 17.9893 0.63369 17.9891ZM10.482 16.7223H7.56404V13.8078H10.482V16.7215V16.7223ZM11.7469 16.7223V13.1776C11.7466 13.0095 11.6798 12.8484 11.5612 12.7297C11.4427 12.6109 11.282 12.5441 11.1145 12.544H6.93036C6.84725 12.5439 6.76494 12.5601 6.68809 12.5919C6.61125 12.6236 6.5414 12.6702 6.48251 12.7291C6.42363 12.7879 6.37686 12.8578 6.34491 12.9348C6.31295 13.0117 6.29642 13.0942 6.29626 13.1776V16.7244H1.26781V9.62825H16.7351V16.7223H11.7469ZM9.00106 1.52919L15.8388 8.36111H2.16409L9.00106 1.52919Z" fill="#4C6085"/>
</svg>
