<svg width="17" height="24" viewBox="0 0 17 24" fill="none" xmlns="http://www.w3.org/2000/svg">
<path fill-rule="evenodd" clip-rule="evenodd" d="M8.50001 0.996735C6.23666 1.01028 4.0709 1.94226 2.47753 3.58834C0.884167 5.23443 -0.0067811 7.46031 7.9997e-06 9.778C-2.71327e-05 10.3658 0.0567518 10.9522 0.16951 11.5285C0.173968 11.5726 0.180812 11.6163 0.19001 11.6596C1.12401 16.0003 7.71051 22.5139 7.99001 22.7894C8.12888 22.9271 8.31466 23.0042 8.50801 23.0042C8.70136 23.0042 8.88713 22.9271 9.02601 22.7894C9.30451 22.5144 15.8525 16.0008 16.787 11.761C16.796 11.721 16.8025 11.6821 16.8075 11.6427C16.9358 11.0304 17.0003 10.4058 17 9.77953C17.0072 7.46158 16.1164 5.23531 14.523 3.58889C12.9296 1.94247 10.7636 1.01028 8.50001 0.996735ZM15.334 11.3478C15.3287 11.3692 15.3258 11.3912 15.3255 11.4133C14.63 14.5652 10.0625 19.5228 8.50651 21.1413C6.94701 19.528 2.36701 14.5734 1.66051 11.3498C1.65781 11.3199 1.65364 11.2902 1.64801 11.2607C1.54991 10.7734 1.50065 10.2771 1.50101 9.77953C1.50232 8.77248 1.71086 7.77702 2.11301 6.85801C2.51517 5.93901 3.10192 5.11708 3.83503 4.44582C4.56814 3.77455 5.43116 3.269 6.36784 2.96211C7.30451 2.65523 8.29383 2.55389 9.27132 2.66471C10.2488 2.77553 11.1925 3.09603 12.0409 3.6053C12.8894 4.11457 13.6235 4.80119 14.1954 5.62042C14.7674 6.43965 15.1644 7.37309 15.3604 8.35993C15.5565 9.34676 15.5479 10.3648 15.334 11.3478ZM8.50001 5.92727C7.93023 5.92209 7.37179 6.09037 6.89558 6.41076C6.41936 6.73114 6.04683 7.18918 5.82528 7.72674C5.60372 8.2643 5.54313 8.85714 5.65118 9.43003C5.75924 10.0029 6.03108 10.53 6.43219 10.9444C6.8333 11.3588 7.34561 11.6419 7.90408 11.7576C8.46256 11.8734 9.04202 11.8166 9.56894 11.5945C10.0959 11.3725 10.5465 10.9951 10.8636 10.5103C11.1807 10.0255 11.35 9.45523 11.35 8.87176C11.3524 8.0946 11.0537 7.34819 10.5194 6.79621C9.98518 6.24423 9.25895 5.93174 8.50001 5.92727ZM8.50001 10.2664C8.23013 10.2689 7.96563 10.1892 7.74008 10.0374C7.51453 9.88563 7.33809 9.66867 7.23316 9.41405C7.12823 9.15943 7.09954 8.87863 7.15073 8.60728C7.20192 8.33594 7.33068 8.08628 7.52068 7.89C7.71067 7.69372 7.95332 7.55966 8.21785 7.50484C8.48237 7.45003 8.75684 7.47692 9.00642 7.58211C9.25599 7.6873 9.46941 7.86605 9.61961 8.09566C9.7698 8.32527 9.84999 8.5954 9.85001 8.87176C9.85134 9.24004 9.70994 9.59381 9.45685 9.85547C9.20377 10.1171 8.85965 10.2653 8.50001 10.2675V10.2664Z" fill="white"/>
</svg>
