<svg width="19" height="19" viewBox="0 0 19 19" fill="none" xmlns="http://www.w3.org/2000/svg">
<path fill-rule="evenodd" clip-rule="evenodd" d="M17.3716 10.8818C17.5396 10.8812 17.7005 10.8141 17.819 10.6951C17.9376 10.5762 18.0042 10.4151 18.0042 10.2471V7.76126C18.0041 7.59333 17.9375 7.43228 17.8189 7.31334C17.7004 7.19441 17.5396 7.12726 17.3716 7.12659H16.1904C16.02 6.46716 15.7591 5.83447 15.4154 5.2465L16.249 4.41496C16.3678 4.29584 16.4344 4.13448 16.4344 3.96628C16.4344 3.79808 16.3678 3.63675 16.249 3.51763L14.4896 1.75818C14.4308 1.6992 14.361 1.65242 14.2841 1.62049C14.2072 1.58856 14.1247 1.57214 14.0414 1.57214C13.9582 1.57214 13.8757 1.58856 13.7987 1.62049C13.7218 1.65242 13.652 1.6992 13.5932 1.75818L12.7638 2.58555C12.1751 2.23742 11.5406 1.97345 10.8787 1.80134V0.63464C10.8791 0.551379 10.863 0.468878 10.8313 0.391865C10.7997 0.314852 10.7531 0.244857 10.6943 0.185884C10.6356 0.126912 10.5657 0.0801236 10.4888 0.048223C10.4119 0.0163224 10.3295 -5.52805e-05 10.2462 5.54479e-07H7.76217C7.5936 -0.000221886 7.43184 0.0664914 7.31244 0.185501C7.19304 0.304511 7.12577 0.466057 7.12544 0.63464V1.7942C6.45967 1.96398 5.82093 2.22612 5.22783 2.57297L4.41519 1.75818C4.29561 1.63902 4.13365 1.57211 3.96484 1.57211C3.79604 1.57211 3.63413 1.63902 3.51455 1.75818L1.75935 3.51763C1.6406 3.63675 1.57393 3.79808 1.57393 3.96628C1.57393 4.13448 1.6406 4.29584 1.75935 4.41496L2.57203 5.22682C2.22059 5.81944 1.95541 6.45912 1.7845 7.12659H0.636732C0.468157 7.12637 0.306397 7.19311 0.187 7.31212C0.0676035 7.43113 0.000333006 7.59267 0 7.76126V10.2492C0.000109904 10.3327 0.0166685 10.4153 0.0487315 10.4924C0.0807945 10.5695 0.127716 10.6395 0.186847 10.6985C0.245978 10.7574 0.316141 10.8041 0.393329 10.8359C0.470518 10.8677 0.553246 10.884 0.636732 10.8839H1.7845C1.95726 11.55 2.22234 12.1888 2.57203 12.7816L1.75935 13.5955C1.64068 13.7148 1.57408 13.8761 1.57408 14.0444C1.57408 14.2126 1.64068 14.374 1.75935 14.4932L3.51455 16.2527C3.63413 16.3719 3.79604 16.4388 3.96484 16.4388C4.13365 16.4388 4.29561 16.3719 4.41519 16.2527L5.23202 15.435C5.82354 15.7816 6.46095 16.0432 7.12544 16.212V17.3708C7.12555 17.4543 7.14211 17.5369 7.17417 17.614C7.20623 17.6911 7.25316 17.7611 7.31229 17.8201C7.37142 17.879 7.44158 17.9257 7.51877 17.9575C7.59596 17.9893 7.67869 18.0056 7.76217 18.0054H10.2462C10.3295 18.0055 10.412 17.9892 10.4889 17.9573C10.5658 17.9254 10.6357 17.8787 10.6945 17.8197C10.7532 17.7607 10.7998 17.6907 10.8314 17.6136C10.8631 17.5366 10.8791 17.4541 10.8787 17.3708V16.1978C11.5393 16.0268 12.1725 15.7635 12.7596 15.4157L13.5932 16.246C13.652 16.305 13.7218 16.3518 13.7987 16.3837C13.8757 16.4156 13.9582 16.432 14.0414 16.432C14.1247 16.432 14.2072 16.4156 14.2841 16.3837C14.361 16.3518 14.4308 16.305 14.4896 16.246L16.249 14.4865C16.3677 14.3673 16.4343 14.2059 16.4343 14.0377C16.4343 13.8694 16.3677 13.7081 16.249 13.5888L15.4154 12.756C15.759 12.1684 16.0198 11.5361 16.1904 10.8772H17.3716V10.8818ZM15.0551 10.1319C14.8999 10.9776 14.5688 11.7812 14.0833 12.4908C13.9995 12.613 13.9611 12.7607 13.9749 12.9083C13.9887 13.0559 14.0537 13.1939 14.1587 13.2985L14.9001 14.0425L14.0414 14.9025L13.3 14.1606C13.1944 14.0555 13.0554 13.9906 12.907 13.9771C12.7586 13.9636 12.6101 14.0025 12.4873 14.0869C11.7797 14.5777 10.9757 14.9124 10.1289 15.0688C9.98309 15.0958 9.85132 15.1729 9.75643 15.2868C9.66155 15.4008 9.60955 15.5443 9.60947 15.6926V16.7374H8.39471V15.6976C8.39499 15.5492 8.34314 15.4053 8.24821 15.2912C8.15328 15.177 8.02125 15.0998 7.87523 15.073C7.02347 14.9205 6.2139 14.5886 5.50012 14.0995C5.37788 14.0155 5.23009 13.9769 5.0824 13.9905C4.93471 14.0042 4.79643 14.0691 4.69163 14.174L3.96694 14.9025L3.10404 14.0425L3.83292 13.3165C3.93741 13.211 4.0017 13.0722 4.0147 12.9243C4.02771 12.7763 3.98857 12.6285 3.9041 12.5063C3.41121 11.7937 3.07565 10.9843 2.9197 10.1319C2.89285 9.98598 2.8157 9.8541 2.70166 9.75919C2.58762 9.66428 2.44391 9.61235 2.29555 9.61245H1.26927V8.39758H2.29555C2.44376 8.39711 2.58717 8.34499 2.7011 8.25018C2.81502 8.15537 2.89232 8.0238 2.9197 7.87813C3.07592 7.02552 3.40989 6.21537 3.8999 5.50038C3.98565 5.37891 4.02559 5.23095 4.01255 5.08284C3.99952 4.93473 3.93437 4.79605 3.82872 4.69143L3.10404 3.96797L3.96694 3.10794L4.69163 3.83351C4.79652 3.93831 4.93475 4.00311 5.0824 4.01673C5.23004 4.03035 5.37783 3.99191 5.50012 3.90806C6.21329 3.41726 7.02304 3.08447 7.87523 2.93198C8.02126 2.90536 8.15331 2.82826 8.24826 2.71416C8.34321 2.60007 8.39505 2.45624 8.39471 2.3078V1.27265H9.60947V2.31284C9.60955 2.46111 9.66155 2.60467 9.75643 2.71861C9.85132 2.83255 9.98309 2.90967 10.1289 2.93658C10.9772 3.09372 11.7825 3.42915 12.4915 3.92064C12.6136 4.00476 12.7614 4.04342 12.9091 4.02995C13.0567 4.01648 13.1951 3.95172 13.3 3.8469L14.0414 3.10794L14.9001 3.96797L14.1587 4.70987C14.0546 4.81488 13.9902 4.95277 13.9764 5.1C13.9627 5.24722 14.0005 5.39465 14.0833 5.51712C14.5723 6.22559 14.9037 7.03069 15.0551 7.87813C15.0819 8.02409 15.1591 8.15602 15.2731 8.25095C15.3872 8.34587 15.5309 8.39776 15.6793 8.39758H16.7349V9.61245H15.6793C15.5309 9.61227 15.3872 9.66416 15.2731 9.75909C15.1591 9.85401 15.0819 9.98594 15.0551 10.1319ZM8.98532 4.74296C8.12386 4.74378 7.282 5 6.56613 5.47923C5.85025 5.95846 5.2925 6.6392 4.96341 7.43536C4.63431 8.23152 4.54862 9.10736 4.71719 9.95221C4.88576 10.7971 5.30104 11.573 5.91048 12.1818C6.51991 12.7907 7.29616 13.2052 8.14113 13.373C8.9861 13.5408 9.86183 13.4543 10.6576 13.1244C11.4534 12.7945 12.1336 12.2361 12.6121 11.5197C13.0906 10.8033 13.346 9.9612 13.346 9.0997C13.3443 7.94404 12.8841 6.83628 12.0666 6.0195C11.2491 5.20271 10.1409 4.74362 8.98532 4.74296ZM8.98532 12.1901C8.37449 12.1896 7.77754 12.008 7.2699 11.6682C6.76225 11.3285 6.36673 10.8459 6.13332 10.2814C5.89991 9.71685 5.83907 9.09582 5.95854 8.49676C6.07801 7.8977 6.37242 7.34752 6.80452 6.91575C7.23661 6.48399 7.78704 6.19003 8.38617 6.07104C8.9853 5.95205 9.60624 6.01336 10.1705 6.24723C10.7348 6.48111 11.2171 6.87707 11.5564 7.38501C11.8957 7.89296 12.0768 8.49009 12.0768 9.10095C12.0758 9.92036 11.7497 10.7059 11.1701 11.285C10.5904 11.8642 9.80469 12.1897 8.98532 12.1901Z" fill="#4C6085"/>
</svg>
